<svg xmlns="http://www.w3.org/2000/svg" width="64" height="64" viewBox="0 0 64 64" fill="none"><path d="M63 42C62.869 42 59.771 41.963 58.97 38.757C58.859 38.312 58.459 38 58 38H46C45.541 38 45.141 38.312 45.03 38.757C44.238 41.927 41.127 41.998 41 42C40.448 42 40 42.448 40 43V52C40 52.066 40.006 52.132 40.02 52.196C40.099 52.59 42.061 61.862 51.788 63.977C51.858 63.992 51.929 64 52 64C52.071 64 52.143 63.992 52.212 63.977C61.939 61.862 63.901 52.59 63.98 52.196C63.993 52.132 64 52.066 64 52V43C64 42.448 63.552 42 63 42ZM62 51.893C61.783 52.843 59.87 60.143 52 61.976C44.126 60.142 42.215 52.836 42 51.894V43.901C43.606 43.598 45.781 42.553 46.735 40.001H57.264C58.219 42.553 60.393 43.598 61.999 43.901V51.894L62 51.893Z" fill="#FE7062"></path><path d="M56.276 42.439C56.09 42.164 55.78 42 55.448 42H48.552C48.22 42 47.91 42.165 47.724 42.439C46.946 43.589 45.884 44.493 44.567 45.127C44.221 45.294 44.001 45.644 44.001 46.028V51.522C44.001 51.613 44.013 51.703 44.038 51.791C44.447 53.255 46.208 58.161 51.711 59.827C51.805 59.856 51.903 59.87 52.001 59.87C52.099 59.87 52.197 59.856 52.292 59.827C57.764 58.166 59.547 53.254 59.964 51.788C59.989 51.699 60.002 51.607 60.002 51.515V46.028C60.002 45.644 59.782 45.294 59.436 45.127C58.119 44.493 57.057 43.588 56.279 42.439H56.276ZM58 51.372C57.6 52.698 56.131 56.419 51.999 57.821C47.842 56.416 46.392 52.702 46 51.382V46.637C47.219 45.959 48.247 45.075 49.064 44H54.935C55.753 45.075 56.78 45.959 57.999 46.637L58 51.372Z" fill="#FE7062"></path><path d="M54.1678 46.4448L50.8448 51.4298L49.7068 50.2928C49.3158 49.9018 48.6838 49.9018 48.2928 50.2928C47.9018 50.6838 47.9018 51.3158 48.2928 51.7068L50.2928 53.7068C50.4808 53.8948 50.7358 53.9998 50.9998 53.9998C51.0328 53.9998 51.0648 53.9988 51.0988 53.9948C51.3968 53.9658 51.6658 53.8038 51.8318 53.5548L55.8318 47.5548C56.1378 47.0958 56.0138 46.4738 55.5548 46.1678C55.0948 45.8608 54.4738 45.9858 54.1678 46.4448Z" fill="#4F52FF"></path><path d="M43 62H36V34H37C39.757 34 42 36.243 42 39C42 39.552 42.448 40 43 40C43.552 40 44 39.552 44 39C44 35.14 40.86 32 37 32H28V30.434C31.933 27.874 32 23.066 32 23V21.858C33.72 21.411 35 19.858 35 18C35 16.589 34.261 15.352 33.154 14.64C34.077 13.625 35 11.892 35 9C35 3.701 30.888 0 25 0C21.793 0 19.515 1.147 18.222 3.409C16.68 2.763 14.836 2.675 12.991 3.227C10.077 4.1 8.165 6.288 8.002 8.938C7.819 11.905 9.106 13.787 10.52 14.867C9.581 15.612 9 16.756 9 17.999C9 19.857 10.28 21.41 12 21.857V22.999C12 23.065 12.067 27.873 16 30.433V31.999H7C3.14 31.999 0 35.139 0 38.999V54.999C0 59.961 4.038 63.999 9 63.999H43C43.552 63.999 44 63.551 44 62.999C44 62.447 43.552 62 43 62ZM32 19.731V16.278C32.595 16.625 33 17.263 33 18C33 18.737 32.597 19.385 32 19.731ZM9.998 9.062C10.13 6.921 11.927 5.634 13.564 5.144C14.127 4.976 14.747 4.88 15.375 4.88C16.807 4.88 18.281 5.375 19.219 6.625L20.219 7.875C20.564 8.306 21.194 8.376 21.624 8.031C22.056 7.686 22.125 7.057 21.78 6.626L20.799 5.4C20.539 5.053 20.246 4.74 19.924 4.461C20.843 2.805 22.505 2 24.999 2C28.981 2 32.999 4.165 32.999 9C32.999 12.636 31.277 13.757 30.801 13.998C26.655 13.898 24.962 10.688 24.893 10.553C24.749 10.266 24.476 10.067 24.161 10.015C23.848 9.961 23.522 10.066 23.294 10.291C23.257 10.328 19.518 13.951 13.128 13.999C12.482 13.811 9.767 12.795 9.997 9.061L9.998 9.062ZM11 18C11 17.283 11.398 16.648 12 16.294V19.732C11.403 19.386 11 18.738 11 18ZM14 23V15.949C15.125 15.889 16.174 15.748 17.133 15.53C17.055 15.672 17 15.827 17 16V18C17 18.552 17.448 19 18 19C18.552 19 19 18.552 19 18V16C19 15.642 18.802 15.343 18.519 15.166C21 14.392 22.788 13.25 23.785 12.49C24.727 13.715 26.707 15.599 30 15.931V22.996C29.998 23.282 29.861 29.999 22 29.999C14.139 29.999 14.002 23.283 14 23ZM22 32C23.566 32 24.886 31.775 26 31.398V35.433L22 37.833L18 35.433V31.398C19.114 31.775 20.434 32 22 32ZM16.485 36.857L21.485 39.857C21.644 39.952 21.821 40 22 40C22.179 40 22.356 39.953 22.515 39.857L27.515 36.857C27.816 36.676 28 36.351 28 36V34H34V62H30.914C31.579 61.149 32 60.109 32 59C32 56.336 29.664 54 27 54H25.509L10.964 34H16V36C16 36.351 16.184 36.677 16.485 36.857ZM10 54V36.075L23.036 54H10ZM14 56V60L11 56H14ZM10 58L13 62H10V58ZM16 58L19 62H16V58ZM17 56H20V60L17 56ZM27 56C28.689 56 30 57.613 30 59C30 60.257 28.919 61.687 27.459 61.946L22.999 56H27ZM7 34H8V46H2V39C2 36.243 4.243 34 7 34ZM2 55V48H8V61.92C4.613 61.432 2 58.519 2 55ZM22 62V58L25 62H22Z" fill="#4F52FF"></path><path d="M22 29C24.408 29 27 27.436 27 24C27 23.448 26.552 23 26 23H18C17.448 23 17 23.448 17 24C17 27.436 19.592 29 22 29ZM24.876 25C24.48 26.455 23.206 27 22 27C20.794 27 19.52 26.455 19.124 25H24.876Z" fill="#4F52FF"></path><path d="M26 19C26.552 19 27 18.552 27 18V16C27 15.448 26.552 15 26 15C25.448 15 25 15.448 25 16V18C25 18.552 25.448 19 26 19Z" fill="#4F52FF"></path><path d="M22 22C22.552 22 23 21.552 23 21C23 20.448 22.552 20 22 20C22.552 20 23 19.552 23 19C23 18.448 22.552 18 22 18C20.897 18 20 18.897 20 20C20 21.103 20.897 22 22 22Z" fill="#4F52FF"></path></svg>