<svg xmlns="http://www.w3.org/2000/svg" width="64" height="49" viewBox="0 0 64 49" fill="none"><path d="M9.78028 22.4541C8.92642 22.4576 8.10874 22.8455 7.50712 23.5324C6.9055 24.2194 6.56923 25.1492 6.57229 26.1172C6.57534 27.0853 6.91747 28.0123 7.5234 28.6944C8.12933 29.3765 8.94944 29.7577 9.80331 29.7543H9.82764C10.6815 29.7507 11.4992 29.3628 12.1007 28.6758C12.7023 27.9888 13.0385 27.059 13.0354 26.0909C13.0323 25.1229 12.6902 24.1959 12.0842 23.5138C11.4782 22.8318 10.6581 22.4506 9.80422 22.4541H9.78028ZM11.4621 26.09C11.4649 26.5885 11.2931 27.0678 10.9846 27.4229C10.676 27.7779 10.2558 27.9797 9.81619 27.9839H9.80318C9.36331 27.9858 8.94082 27.7894 8.62865 27.4381C8.31648 27.0867 8.1402 26.6092 8.13859 26.1105C8.13699 25.6118 8.31019 25.1328 8.62009 24.7789C8.92999 24.4249 9.35121 24.2251 9.79108 24.2233H9.80409C10.2417 24.224 10.6613 24.4204 10.9718 24.77C11.2823 25.1196 11.4585 25.594 11.4621 26.09Z" fill="#4F52FF"></path><path d="M57.6573 14.7863C57.6008 13.9797 57.456 13.1843 57.2264 12.4182C56.7299 10.7704 55.1956 9.7117 53.31 9.7117H53.2684C52.0861 9.72158 49.9278 9.73087 48.9859 9.73456L47.0354 5.72921C45.6992 3.05987 43.7597 0 40.5848 0H40.5436L17.1188 0.195998C14.5095 0.217825 12.2042 2.29224 10.6258 6.03744L8.64246 10.0916C7.7038 10.0972 5.52051 10.1108 4.32377 10.1211C2.41912 10.137 0.879345 11.2251 0.400776 12.8937C0.181377 13.6634 0.0469759 14.4609 0.000645677 15.2681C-0.00363155 15.3872 0.0133761 15.5061 0.050647 15.6176C0.0879179 15.7291 0.144683 15.8309 0.217533 15.9169C0.290383 16.0029 0.377815 16.0714 0.474577 16.1181C0.571339 16.1649 0.675435 16.1889 0.780613 16.1889H0.787377L3.97437 16.1576C2.60526 17.2451 1.71954 19.1612 1.73398 21.3815C1.73423 21.4186 1.73658 21.4557 1.741 21.4925L3.19661 33.8013C3.21551 34.6408 3.49571 35.4457 3.98764 36.0735C4.47957 36.7013 5.15152 37.1117 5.88461 37.2319L5.91063 41.2465C5.91501 41.8319 6.12304 42.3916 6.48946 42.8041C6.85589 43.2165 7.35111 43.4483 7.86744 43.449H7.88201L11.4547 43.4195C11.9735 43.4144 12.4695 43.1763 12.8336 42.7573C13.1978 42.3382 13.4005 41.7726 13.3973 41.1843L13.3713 37.2098L39.3158 36.9931C39.4183 36.9923 39.5196 36.9686 39.614 36.9233C39.7084 36.878 39.794 36.8121 39.866 36.7294C39.9379 36.6466 39.9948 36.5486 40.0333 36.4409C40.0718 36.3332 40.0913 36.218 40.0905 36.1018C40.0898 35.9856 40.0688 35.8707 40.0289 35.7637C39.989 35.6566 39.9309 35.5596 39.8579 35.478C39.7849 35.3964 39.6984 35.332 39.6034 35.2883C39.5084 35.2446 39.4068 35.2226 39.3043 35.2234L6.34068 35.4983H6.32884C5.91391 35.4979 5.51592 35.3117 5.22144 34.9802C4.92697 34.6488 4.75985 34.199 4.75642 33.7286C4.75618 33.6914 4.75392 33.6542 4.74965 33.6174L3.29456 21.3146C3.29912 18.7006 4.87206 17.0932 6.45554 16.9788C6.50047 16.9882 6.54604 16.9932 6.59173 16.9935H6.59746L46.6098 16.6633L46.5984 14.8936L45.3079 14.9042C45.1469 13.3427 44.4857 11.9026 43.4499 10.8573C42.4141 9.81195 41.0758 9.23426 39.6891 9.23387H39.6462C38.2528 9.24757 36.9128 9.84286 35.8821 10.906C34.8514 11.9691 34.2024 13.4255 34.059 14.9969L7.92207 15.2133L12.0029 6.87201C12.0107 6.85594 12.0181 6.83957 12.025 6.82305C12.7824 5.01866 14.4528 1.98815 17.1304 1.96573L40.5548 1.77003H40.5855C42.4586 1.77003 43.9837 3.21811 45.6732 6.59373L49.434 14.3167L50.7998 13.4613L49.8454 11.501C50.9109 11.4965 52.3776 11.4892 53.2796 11.4817C54.4783 11.4702 55.4743 12.0778 55.7493 12.9904C55.844 13.3073 55.9209 13.6306 55.9797 13.9585L53.674 13.9787C53.467 13.9795 53.2688 14.0736 53.123 14.2402C52.9771 14.4068 52.8957 14.6322 52.8964 14.8668C52.8972 15.1015 52.9802 15.3262 53.1271 15.4916C53.274 15.6569 53.4728 15.7493 53.6798 15.7484H53.686L56.8843 15.7204C56.9899 15.7194 57.0943 15.6942 57.191 15.6462C57.2878 15.5982 57.375 15.5284 57.4473 15.4411C57.5196 15.3538 57.5755 15.2507 57.6116 15.1382C57.6477 15.0257 57.6633 14.906 57.6575 14.7864L57.6573 14.7863ZM11.8362 41.1968C11.8369 41.3159 11.7959 41.4304 11.7222 41.5152C11.6485 41.6 11.5481 41.6482 11.4431 41.6493L7.86939 41.6788H7.86744C7.76296 41.6786 7.66275 41.6317 7.5886 41.5483C7.51446 41.4648 7.47236 41.3516 7.47147 41.2331L7.44546 37.2586L11.8102 37.2222L11.8362 41.1968ZM39.6571 11.0043C40.6372 10.9962 41.5874 11.3865 42.3354 12.1045C43.0835 12.8224 43.5798 13.8205 43.7345 14.9178L35.6317 14.9846C35.7732 13.8857 36.2568 12.8804 36.9951 12.1504C37.7333 11.4204 38.6775 11.0139 39.6571 11.0043ZM1.88539 13.4402C2.14842 12.5234 3.133 11.9006 4.33534 11.8905C5.23954 11.8829 6.70646 11.8734 7.7743 11.8666L6.55323 14.3624L1.6679 14.4105C1.72241 14.0822 1.79505 13.7582 1.88539 13.4402Z" fill="#4F52FF"></path><path d="M22.6536 22.7646H22.6475C22.545 22.7655 22.4436 22.7892 22.3492 22.8344C22.2548 22.8797 22.1691 22.9456 22.0972 23.0283C22.0252 23.1111 21.9683 23.2092 21.9298 23.3168C21.8913 23.4245 21.8718 23.5398 21.8726 23.656L21.8891 26.204C21.8906 26.4375 21.9735 26.6609 22.1197 26.8255C22.2659 26.99 22.4636 27.0824 22.6696 27.0824H22.6754C22.7779 27.0815 22.8793 27.0578 22.9737 27.0125C23.0681 26.9673 23.1537 26.9014 23.2257 26.8186C23.2976 26.7358 23.3545 26.6378 23.393 26.5301C23.4315 26.4224 23.451 26.3072 23.4502 26.191L23.4337 23.6432C23.4322 23.4097 23.3494 23.1863 23.2033 23.0217C23.0571 22.8572 22.8596 22.7648 22.6536 22.7646Z" fill="#4F52FF"></path><path d="M18.4849 22.7983C18.3824 22.7992 18.281 22.8229 18.1866 22.8681C18.0922 22.9134 18.0065 22.9793 17.9346 23.062C17.8626 23.1448 17.8057 23.2428 17.7672 23.3505C17.7287 23.4582 17.7092 23.5735 17.71 23.6897L17.7266 26.2377C17.7281 26.4712 17.811 26.6946 17.9572 26.8592C18.1035 27.0237 18.3011 27.116 18.5071 27.116H18.513C18.6155 27.1152 18.7168 27.0915 18.8113 27.0462C18.9057 27.0009 18.9913 26.935 19.0632 26.8522C19.1352 26.7695 19.192 26.6714 19.2306 26.5637C19.2691 26.456 19.2885 26.3408 19.2877 26.2245L19.2711 23.6766C19.2685 23.4423 19.1844 23.2186 19.0372 23.0542C18.89 22.8898 18.6915 22.7978 18.4849 22.7983Z" fill="#4F52FF"></path><path d="M26.8162 22.73H26.8101C26.7076 22.7308 26.6062 22.7545 26.5118 22.7998C26.4174 22.845 26.3317 22.9109 26.2598 22.9937C26.1878 23.0765 26.1309 23.1745 26.0924 23.2822C26.0539 23.3899 26.0344 23.5051 26.0352 23.6213L26.0517 26.1692C26.0532 26.4027 26.1361 26.6261 26.2823 26.7907C26.4285 26.9552 26.6262 27.0475 26.8322 27.0475H26.838C26.9405 27.0467 27.0419 27.023 27.1363 26.9777C27.2307 26.9324 27.3163 26.8666 27.3883 26.7838C27.4602 26.701 27.5171 26.603 27.5556 26.4953C27.5941 26.3876 27.6136 26.2724 27.6128 26.1562L27.5963 23.6084C27.5948 23.3749 27.5119 23.1515 27.3658 22.987C27.2197 22.8225 27.0221 22.7301 26.8162 22.73Z" fill="#4F52FF"></path><path d="M30.9785 22.6934H30.9725C30.87 22.6942 30.7687 22.7179 30.6743 22.7632C30.5799 22.8084 30.4943 22.8743 30.4223 22.9571C30.3504 23.0399 30.2935 23.1379 30.255 23.2456C30.2165 23.3533 30.197 23.4685 30.1978 23.5847L30.2143 26.1327C30.2158 26.3662 30.2988 26.5896 30.445 26.7541C30.5912 26.9186 30.7888 27.0109 30.9948 27.0109H31.0006C31.1031 27.0101 31.2045 26.9863 31.2989 26.9411C31.3933 26.8958 31.4789 26.8299 31.5509 26.7472C31.6228 26.6644 31.6797 26.5664 31.7182 26.4587C31.7567 26.351 31.7762 26.2358 31.7754 26.1196L31.7589 23.5716C31.7573 23.3381 31.6744 23.1147 31.5283 22.9502C31.3821 22.7857 31.1845 22.6934 30.9785 22.6934Z" fill="#4F52FF"></path><path d="M35.1411 22.6602H35.1351C35.0326 22.661 34.9313 22.6847 34.8369 22.73C34.7425 22.7752 34.6569 22.8411 34.5849 22.9239C34.513 23.0067 34.4561 23.1047 34.4176 23.2124C34.3791 23.3201 34.3596 23.4353 34.3604 23.5515L34.3768 26.0993C34.3783 26.3329 34.4612 26.5563 34.6074 26.7208C34.7536 26.8854 34.9512 26.9777 35.1572 26.9777H35.1631C35.2656 26.9769 35.3669 26.9531 35.4614 26.9079C35.5558 26.8626 35.6414 26.7967 35.7133 26.714C35.7853 26.6312 35.8421 26.5332 35.8806 26.4255C35.9192 26.3178 35.9386 26.2026 35.9379 26.0864L35.9215 23.5385C35.92 23.305 35.8371 23.0816 35.6909 22.9171C35.5447 22.7525 35.3471 22.6602 35.1411 22.6602Z" fill="#4F52FF"></path><path d="M63.5637 19.3829L51.3691 12.5915C51.2621 12.5319 51.1446 12.501 51.0254 12.501C50.9062 12.501 50.7886 12.5319 50.6816 12.5915L38.4865 19.3629C38.3554 19.4358 38.2449 19.5488 38.1676 19.6893C38.0903 19.8298 38.0493 19.992 38.0493 20.1576V33.113C38.0493 36.5007 39.9847 40.6503 42.455 42.56L50.5851 48.8464C50.7147 48.9466 50.868 49.0002 51.0249 49.0002C51.1818 49.0002 51.3351 48.9466 51.4647 48.8464L59.5948 42.5601C62.0647 40.6491 64 36.5001 64 33.113V20.1764C63.9999 20.0112 63.959 19.8492 63.8819 19.709C63.8048 19.5687 63.6945 19.4557 63.5637 19.3829ZM62.439 33.113C62.439 35.8809 60.7335 39.5374 58.7147 41.0979L51.0244 47.0442L43.334 41.0979C41.3153 39.5374 39.6098 35.8809 39.6098 33.113V20.7102L51.0239 14.3723L62.439 20.7277V33.113Z" fill="#FE7062"></path><path d="M47.7958 29.5032C47.6555 29.3307 47.4604 29.2284 47.2536 29.2189C47.0468 29.2094 46.845 29.2934 46.6929 29.4525C46.5407 29.6116 46.4504 29.8327 46.442 30.0672C46.4337 30.3017 46.5078 30.5304 46.6481 30.703L49.2765 33.9342C49.4165 34.1063 49.611 34.2085 49.8174 34.2184C50.0237 34.2282 50.2251 34.145 50.3774 33.9868L55.3546 28.8183C55.5059 28.6595 55.5957 28.4391 55.6041 28.2055C55.6126 27.9718 55.5392 27.7438 55.3999 27.5714C55.2606 27.3989 55.0667 27.296 54.8606 27.2851C54.6546 27.2743 54.4531 27.3563 54.3003 27.5133L49.8968 32.0861L47.7958 29.5032Z" fill="#4F52FF"></path></svg>