<svg xmlns="http://www.w3.org/2000/svg" width="64" height="64" viewBox="0 0 64 64" fill="none"><path d="M36.2667 61.5561C33.4372 61.9689 30.5628 61.9689 27.7334 61.5561V55.9442C27.7333 55.7015 27.6506 55.4661 27.4987 55.2768C27.3469 55.0876 27.135 54.9557 26.8982 54.9031C24.2409 54.3147 21.7075 53.2644 19.4134 51.8C19.2086 51.6698 18.9655 51.6133 18.7242 51.6398C18.483 51.6664 18.258 51.7745 18.0864 51.9462L14.1163 55.9164C11.8233 54.2079 9.79068 52.1752 8.08219 49.8821L12.0534 45.9118C12.2251 45.7402 12.3331 45.5153 12.3597 45.274C12.3863 45.0327 12.3298 44.7896 12.1995 44.5848C10.7353 42.2909 9.68503 39.7578 9.09659 37.1008C9.04373 36.8641 8.91179 36.6525 8.72255 36.5009C8.5333 36.3493 8.29803 36.2666 8.05553 36.2667H2.4438C2.02993 33.4372 2.02993 30.5625 2.4438 27.733H8.05553C8.29817 27.733 8.53356 27.6502 8.72283 27.4983C8.9121 27.3465 9.04394 27.1347 9.09659 26.8978C9.68491 24.2404 10.7352 21.7069 12.1995 19.4127C12.3298 19.2079 12.3863 18.9648 12.3597 18.7235C12.3331 18.4823 12.2251 18.2573 12.0534 18.0857L8.08326 14.1154C9.79175 11.8223 11.8244 9.78965 14.1174 8.08109L18.0875 12.0524C18.2591 12.2241 18.484 12.3322 18.7253 12.3588C18.9665 12.3853 19.2096 12.3288 19.4144 12.1986C21.7082 10.7343 24.2412 9.68399 26.8982 9.09553C27.1352 9.04283 27.3472 8.91083 27.499 8.72133C27.6509 8.53184 27.7336 8.2962 27.7334 8.05335V2.44142C30.5628 2.02861 33.4372 2.02861 36.2667 2.44142V8.05335C36.2667 8.29601 36.3495 8.5314 36.5014 8.72068C36.6532 8.90996 36.865 9.0418 37.1019 9.09446C39.7592 9.6828 42.2926 10.7331 44.5867 12.1975C44.7915 12.3278 45.0346 12.3843 45.2758 12.3577C45.5171 12.3311 45.7421 12.2231 45.9136 12.0514L49.8837 8.08109C52.1768 9.78965 54.2094 11.8223 55.9179 14.1154L51.9467 18.0857C51.775 18.2573 51.6669 18.4823 51.6404 18.7235C51.6138 18.9648 51.6703 19.2079 51.8005 19.4127C52.1611 19.977 52.4928 20.5551 52.8011 21.144C53.7355 21.5354 54.6859 21.8789 55.648 22.1925C55.1896 21.0921 54.6549 20.0249 54.048 18.9988L58.064 14.9827C58.2409 14.8058 58.35 14.5723 58.3723 14.3231C58.3945 14.0739 58.3284 13.8248 58.1856 13.6194C56.0621 10.578 53.4194 7.9345 50.3787 5.81007C50.1733 5.66725 49.9242 5.60118 49.675 5.62341C49.4258 5.64564 49.1924 5.75476 49.0155 5.93168L44.9995 9.94782C42.9398 8.72894 40.7179 7.80777 38.4 7.21172V1.53365C38.3999 1.28337 38.3118 1.0411 38.1512 0.849218C37.9905 0.657334 37.7675 0.52806 37.5211 0.484011C33.8687 -0.161337 30.1314 -0.161337 26.479 0.484011C26.2326 0.52806 26.0096 0.657334 25.8489 0.849218C25.6882 1.0411 25.6001 1.28337 25.6 1.53365V7.21172C23.2821 7.80777 21.0603 8.72894 19.0006 9.94782L14.9846 5.93168C14.8077 5.75476 14.5742 5.64564 14.3251 5.62341C14.0759 5.60118 13.8268 5.66725 13.6214 5.81007C10.5799 7.9343 7.93648 10.5778 5.81233 13.6194C5.66938 13.8247 5.60313 14.0737 5.62516 14.3229C5.6472 14.5721 5.75611 14.8056 5.93286 14.9827L9.94992 18.9988C8.731 21.0589 7.80985 23.2812 7.21393 25.5996H1.53607C1.2858 25.5997 1.04354 25.6878 0.85166 25.8485C0.659784 26.0092 0.530514 26.2322 0.486467 26.4786C-0.162156 30.1308 -0.162156 33.8688 0.486467 37.5211C0.530514 37.7675 0.659784 37.9905 0.85166 38.1512C1.04354 38.3119 1.2858 38.4 1.53607 38.4001H7.21393C7.80995 40.7181 8.73109 42.94 9.94992 44.9998L5.93286 49.0149C5.75611 49.1919 5.6472 49.4254 5.62516 49.6746C5.60313 49.9238 5.66938 50.1728 5.81233 50.3781C7.93648 53.4197 10.5799 56.0632 13.6214 58.1875C13.8267 58.3304 14.0757 58.3967 14.3249 58.3746C14.574 58.3526 14.8076 58.2437 14.9846 58.0669L19.0006 54.0497C21.0603 55.2686 23.2821 56.1898 25.6 56.7858V62.4639C25.6001 62.7142 25.6882 62.9564 25.8489 63.1483C26.0096 63.3402 26.2326 63.4695 26.479 63.5135C30.1311 64.1622 33.869 64.1622 37.5211 63.5135C37.7675 63.4695 37.9905 63.3402 38.1512 63.1483C38.3118 62.9564 38.3999 62.7142 38.4 62.4639V60.4371C37.6462 59.7196 36.9339 58.9595 36.2667 58.1608V61.5561Z" fill="#4F52FF"></path><path d="M31.9999 19.1994C35.0243 19.1927 37.9517 20.2663 40.2548 22.2267C41.0207 21.9792 41.7773 21.7065 42.5247 21.4085C40.8271 19.7203 38.7486 18.4651 36.4643 17.7485C34.18 17.032 31.7569 16.8751 29.3993 17.2913C27.0417 17.7074 24.8187 18.6842 22.9177 20.1395C21.0167 21.5947 19.4935 23.4857 18.4763 25.653C17.4592 27.8203 16.978 30.2004 17.0734 32.5926C17.1687 34.9849 17.8378 37.3191 19.0242 39.3986C20.2106 41.478 21.8795 43.2418 23.8903 44.5411C25.9011 45.8404 28.1948 46.6372 30.5781 46.8644C30.4088 46.1369 30.2698 45.4001 30.161 44.6541C26.9618 44.1886 24.0574 42.5291 22.0319 40.0092C20.0064 37.4894 19.0099 34.2961 19.2429 31.0715C19.4759 27.8469 20.9209 24.83 23.2876 22.6275C25.6543 20.425 28.767 19.2002 31.9999 19.1994Z" fill="#4F52FF"></path><path d="M63.0506 25.9711C57.9577 25.4128 53.0194 23.881 48.5045 21.4589C48.3494 21.3756 48.1761 21.332 48 21.332C47.8239 21.332 47.6506 21.3756 47.4955 21.4589C42.9806 23.881 38.0423 25.4128 32.9493 25.9711C32.6883 26 32.4472 26.1241 32.272 26.3197C32.0968 26.5154 32 26.7688 32 27.0314V40.7471C32.0214 45.7161 33.5128 50.5677 36.2864 54.6907C39.06 58.8136 42.9916 62.0235 47.5861 63.9159C47.7171 63.9711 47.8578 63.9995 48 63.9995C48.1421 63.9995 48.2828 63.9711 48.4138 63.9159C53.0083 62.0235 56.94 58.8136 59.7136 54.6907C62.4872 50.5677 63.9786 45.7161 64 40.7471V27.0314C64 26.7688 63.9031 26.5154 63.728 26.3197C63.5528 26.1241 63.3116 26 63.0506 25.9711ZM61.8666 40.7471C61.8451 45.2193 60.5224 49.5886 58.0602 53.3219C55.5979 57.0552 52.1024 59.9913 48 61.7718C43.8976 59.9913 40.4021 57.0552 37.9398 53.3219C35.4775 49.5886 34.1549 45.2193 34.1333 40.7471V27.9754C38.9743 27.3332 43.6665 25.8533 48 23.6019C52.3334 25.8533 57.0257 27.3332 61.8666 27.9754V40.7471Z" fill="#FE7062"></path><path d="M38.4193 40.1775L36.9067 41.6794L43.7995 48.629C43.8987 48.7289 44.0166 48.8081 44.1465 48.8621C44.2764 48.9162 44.4156 48.944 44.5563 48.944C44.697 48.944 44.8363 48.9162 44.9662 48.8621C45.0961 48.8081 45.214 48.7289 45.3131 48.629L59.0934 34.732L57.5787 33.229L44.5547 46.3634L38.4193 40.1775Z" fill="#4F52FF"></path></svg>