<svg xmlns="http://www.w3.org/2000/svg" width="46" height="64" viewBox="0 0 46 64" fill="none"><path d="M11.314 33.3283C11.314 34.316 12.8354 34.316 12.8354 33.3283V19.2213C12.8354 10.4668 23.6672 5.86736 30.0739 12.1853C31.9055 13.9914 33.0425 16.4822 33.0425 19.2213V47.8861C33.0425 53.5943 28.1209 58.1686 22.3419 57.8338C21.3442 57.7761 21.2552 59.2704 22.2527 59.3283C28.9263 59.7159 34.564 54.4446 34.564 47.8861V19.2213C34.564 9.13467 22.0908 3.86376 14.7281 11.1244C12.6217 13.2017 11.314 16.068 11.314 19.2213L11.314 33.3283Z" fill="#4F52FF"></path><path d="M20.3149 3.33749V8.05462C22.0535 7.65945 23.8123 7.65945 25.5509 8.05462V3.33749C25.5509 2.92992 25.2103 2.59411 24.797 2.59411H21.0687C20.6559 2.59411 20.3149 2.93036 20.3149 3.33749ZM18.7935 9.04152V3.33749C18.7935 2.10177 19.8157 1.09375 21.0688 1.09375H24.7971C26.0505 1.09375 27.0723 2.10147 27.0723 3.33749C27.0723 4.05208 27.1253 9.00356 27.0342 9.27647C26.9027 9.66988 26.4723 9.88371 26.0734 9.75405C22.5318 8.60368 20.0196 9.79171 19.5542 9.79171C19.1341 9.79171 18.7935 9.45574 18.7935 9.04152Z" fill="#4F52FF"></path><path d="M10.3029 4.7085C9.30138 4.7085 9.30138 6.20885 10.3029 6.20885H19.5601C20.5616 6.20885 20.5616 4.7085 19.5601 4.7085H10.3029ZM26.3175 4.7085C25.316 4.7085 25.316 6.20885 26.3175 6.20885H29.0606C35.8814 6.20885 41.4649 11.7151 41.4649 18.4413V37.2834C41.4649 38.271 42.9863 38.271 42.9863 37.2834V18.4413C42.9863 10.8867 36.7216 4.7085 29.0606 4.7085H26.3175Z" fill="#4F52FF"></path><path d="M39.1811 36.5352H45.2398C45.6599 36.5352 46.0005 36.8711 46.0005 37.2853V45.3276C46.0005 45.7418 45.6599 46.0778 45.2398 46.0778H39.1811C38.7611 46.0778 38.4204 45.7418 38.4204 45.3276V37.2853C38.4204 36.8711 38.7611 36.5352 39.1811 36.5352ZM44.4791 38.0355H39.9419V44.5774H44.4791V38.0355Z" fill="#FE7062"></path><path d="M8.40007 0C7.39855 0 7.39855 1.50036 8.40007 1.50036H12.868L17.4756 5.97634C18.1869 6.66671 19.2516 5.60081 18.5394 4.90955L13.7484 0.255327C13.6089 0.0987937 13.4045 3.75103e-07 13.1768 3.75103e-07L8.40007 0Z" fill="#FE7062"></path><path d="M25.8532 47.3233C24.8517 47.3233 24.8517 48.8236 25.8532 48.8236H33.7926C34.2126 48.8236 34.5533 48.4877 34.5533 48.0734V20.6296C34.5533 19.7372 34.6123 18.278 33.6639 18.2832H25.1233C23.4908 18.2832 22.1538 19.6031 22.1538 21.2116V37.8827C22.1538 38.8703 23.6753 38.8703 23.6753 37.8827V21.2116C23.6753 20.4258 24.3262 19.7836 25.1233 19.7836H32.9964C33.0193 20.0664 33.0319 20.3456 33.0319 20.6296V47.3233H25.8532Z" fill="#FE7062"></path><path d="M19.7604 35.7965C21.9526 36.8512 23.7307 37.3314 26.0575 37.972C26.3989 38.0659 26.6231 38.3737 26.6162 38.7077V49.9802C26.6162 57.0449 20.8825 62.3864 14.1758 63.8383C13.2091 64.0476 13.4665 64.0604 12.4402 63.8383C5.73373 62.3864 0 57.0446 0 49.9802V38.693C0 38.3279 0.264457 38.0237 0.614719 37.9567C2.9219 37.3214 4.68129 36.8423 6.85582 35.7967C9.45246 34.5476 10.6437 33.5278 12.8172 31.7115C13.8724 30.8298 14.8475 33.4339 19.7604 35.7965ZM19.0946 37.1444C16.6283 35.9583 15.3635 34.9813 13.3079 33.2637C9.19054 36.7048 6.72747 37.827 1.52145 39.26V49.9802C1.52145 56.3295 6.7601 61.0738 12.7613 62.373H13.8548C19.856 61.074 25.0948 56.3295 25.0948 49.9802V39.26C22.8932 38.6539 21.174 38.1449 19.0946 37.1444Z" fill="#4F52FF"></path><path d="M17.2858 40.7711C15.9262 40.1172 14.5195 39.3345 13.3118 38.4306C11.2328 39.9874 8.04933 41.5109 5.54852 42.284V49.8538C5.54852 54.2005 9.30842 57.3314 13.3118 58.2539C17.3159 57.3308 21.0752 54.1999 21.0752 49.8538V42.2841C19.7809 41.8841 18.5039 41.357 17.2858 40.7711ZM17.9516 39.4231C19.2339 40.0401 20.6083 40.6066 21.9824 40.9904C22.3323 41.0577 22.5966 41.3619 22.5966 41.7267V49.8538C22.5966 54.9673 18.2693 58.702 13.5124 59.7463C13.3976 59.7775 13.2733 59.7822 13.1488 59.7553C8.37931 58.722 4.02701 54.9785 4.02701 49.8538V41.7414C4.02012 41.4073 4.24175 41.098 4.58318 41.0041C6.9266 40.3595 11.0353 38.483 12.7843 36.9318C13.0621 36.6676 13.5031 36.6487 13.8038 36.9001C14.9967 37.8972 16.5489 38.7484 17.9516 39.4231Z" fill="#FE7062"></path><path d="M8.87048 47.4564C8.16232 46.7581 7.08652 47.819 7.79469 48.5173L10.8837 51.5634C11.1807 51.8562 11.6626 51.8562 11.9595 51.5634L18.054 45.5535C18.7621 44.8552 17.6863 43.7943 16.9782 44.4926L11.4216 49.9721L8.87048 47.4564Z" fill="#4F52FF"></path></svg>