<svg xmlns="http://www.w3.org/2000/svg" width="64" height="64" viewBox="0 0 64 64" fill="none"><path d="M59.1903 20.5761C58.5953 20.8362 58.0846 21.2569 57.7153 21.791C57.346 22.3251 57.1329 22.9516 57.0996 23.6C57.0996 23.7227 56.9642 26.4799 56.8116 29.7406C56.1901 29.4806 55.5073 29.4032 54.8433 29.5177C54.1794 29.6322 53.5619 29.9338 53.0634 30.387L40.4948 41.8299C39.8379 42.3733 39.3094 43.0553 38.9472 43.8271C38.585 44.5988 38.3981 45.4412 38.3999 46.2937V60.8C38.3999 61.6486 38.7371 62.4625 39.3372 63.0626C39.9373 63.6627 40.7512 63.9999 41.5999 63.9999H49.0666C49.9153 63.9999 50.7292 63.6627 51.3293 63.0626C51.9294 62.4625 52.2666 61.6486 52.2666 60.8V56.5334C52.2673 56.1272 52.3718 55.7278 52.57 55.3731C52.7682 55.0185 53.0537 54.7203 53.3994 54.5068L60.6367 50.0707C61.6605 49.4114 62.5041 48.5075 63.0913 47.4407C63.6784 46.3739 63.9907 45.1776 63.9999 43.9599V23.6331C63.9908 23.1296 63.8715 22.6342 63.6504 22.1818C63.4292 21.7294 63.1116 21.331 62.7199 21.0145C62.23 20.6214 61.6406 20.3723 61.0173 20.2949C60.394 20.2175 59.7615 20.3148 59.1903 20.5761ZM61.8666 43.9599C61.8576 44.8117 61.6398 45.6483 61.2321 46.3963C60.8245 47.1443 60.2395 47.7808 59.5284 48.25L52.2858 52.6935C51.6304 53.0981 51.0889 53.6629 50.7123 54.3348C50.3356 55.0066 50.1364 55.7633 50.1332 56.5334V60.8C50.1332 61.0829 50.0209 61.3542 49.8208 61.5542C49.6208 61.7542 49.3495 61.8666 49.0666 61.8666H41.5999C41.317 61.8666 41.0457 61.7542 40.8457 61.5542C40.6456 61.3542 40.5332 61.0829 40.5332 60.8V46.2937C40.5328 45.7446 40.6555 45.2023 40.8924 44.7069C41.1292 44.2114 41.4741 43.7754 41.9018 43.4309L54.4884 31.9731C54.758 31.7328 55.1055 31.5983 55.4666 31.5945C55.7126 31.5894 55.9537 31.6642 56.1535 31.8078C56.286 31.9096 56.3969 32.0368 56.4798 32.1819C56.5626 32.327 56.6159 32.4871 56.6363 32.653C56.6568 32.8188 56.644 32.9871 56.5989 33.148C56.5537 33.3088 56.477 33.4592 56.3732 33.5901C56.3732 33.5901 49.6308 41.9931 49.6276 41.9995L46.961 45.3188C46.8695 45.4276 46.8008 45.5535 46.7587 45.6892C46.7166 45.825 46.702 45.9677 46.7159 46.1091C46.7297 46.2505 46.7717 46.3877 46.8393 46.5127C46.9069 46.6377 46.9988 46.7479 47.1096 46.8369C47.2203 46.9258 47.3478 46.9918 47.4844 47.0308C47.621 47.0698 47.7641 47.0812 47.9052 47.0642C48.0462 47.0472 48.1825 47.0021 48.3059 46.9318C48.4293 46.8614 48.5374 46.767 48.6239 46.6543L51.0516 43.6336L56.8532 42.5115C57.2824 42.4227 57.6703 42.1946 57.9564 41.8626C58.2425 41.5306 58.4108 41.1134 58.4351 40.6758C59.2116 24.2496 59.2351 23.6896 59.2351 23.6907C59.2524 23.4386 59.3391 23.1962 59.4855 22.9903C59.632 22.7843 59.8325 22.6229 60.065 22.5238C60.2776 22.4223 60.5146 22.383 60.7486 22.4104C60.9826 22.4377 61.2042 22.5307 61.3876 22.6785C61.5346 22.7965 61.6539 22.9452 61.7374 23.1141C61.8208 23.283 61.8664 23.4682 61.8708 23.6566L61.8666 43.9599ZM56.4746 36.8754C56.3903 38.6684 56.3263 40.0369 56.306 40.4443L53.1199 41.0672L56.4746 36.8754Z" fill="#4F52FF"></path><path d="M3.3568 50.0687L10.6005 54.5069C10.9462 54.7204 11.2317 55.0186 11.4299 55.3733C11.6281 55.7279 11.7326 56.1273 11.7333 56.5336V60.8001C11.7333 61.6488 12.0705 62.4627 12.6706 63.0628C13.2707 63.6629 14.0846 64 14.9333 64H22.4C23.2487 64 24.0626 63.6629 24.6627 63.0628C25.2629 62.4627 25.6 61.6488 25.6 60.8001V46.2939C25.6034 45.4472 25.4199 44.6103 25.0625 43.8427C24.7052 43.0752 24.1829 42.3959 23.5328 41.8535L10.9259 30.3786C10.4289 29.9279 9.8137 29.6282 9.15242 29.5148C8.49114 29.4015 7.81124 29.4791 7.19253 29.7386C7.03893 26.4758 6.90986 23.71 6.90453 23.581C6.86891 22.9351 6.65456 22.3119 6.2854 21.7808C5.91625 21.2497 5.40679 20.8315 4.81387 20.573C4.24452 20.3125 3.61404 20.215 2.99258 20.2914C2.37112 20.3679 1.78307 20.6153 1.29387 21.0061C0.898791 21.3224 0.578098 21.7217 0.354503 22.1756C0.130909 22.6296 0.00988322 23.1273 0 23.6332L0 43.9601C0.00849027 45.1769 0.319794 46.3725 0.905826 47.4389C1.49186 48.5053 2.33418 49.4091 3.3568 50.0687ZM2.13333 23.6567C2.13815 23.467 2.18448 23.2806 2.26907 23.1107C2.35365 22.9408 2.47444 22.7915 2.62293 22.6733C2.80603 22.527 3.0267 22.4354 3.25955 22.409C3.49241 22.3825 3.72799 22.4224 3.9392 22.5239C4.16469 22.6179 4.36067 22.7709 4.50652 22.9669C4.65237 23.1629 4.7427 23.3945 4.768 23.6375C4.768 23.6706 4.768 23.7154 5.56907 40.6823C5.59577 41.1216 5.76725 41.5397 6.05673 41.8712C6.3462 42.2028 6.73736 42.4291 7.16906 42.5148L12.9504 43.6369L15.3781 46.6576C15.4646 46.7703 15.5727 46.8647 15.6961 46.9351C15.8196 47.0055 15.9558 47.0505 16.0969 47.0675C16.238 47.0845 16.381 47.0732 16.5176 47.0341C16.6543 46.9951 16.7817 46.9292 16.8925 46.8402C17.0033 46.7512 17.0952 46.641 17.1628 46.516C17.2304 46.3911 17.2723 46.2538 17.2862 46.1124C17.3 45.971 17.2855 45.8283 17.2434 45.6926C17.2013 45.5569 17.1325 45.4309 17.0411 45.3222C17.0411 45.3222 14.3744 42.0028 14.3744 41.9964L7.61813 33.5817C7.51607 33.4514 7.44084 33.3021 7.39678 33.1426C7.35273 32.983 7.34071 32.8163 7.36144 32.6521C7.38217 32.4879 7.43523 32.3294 7.51755 32.1857C7.59987 32.0421 7.70982 31.9163 7.84106 31.8154C8.09455 31.651 8.39583 31.5764 8.69671 31.6035C8.9976 31.6306 9.28072 31.7578 9.5008 31.9647L22.1259 43.4566C22.5463 43.8 22.8849 44.2329 23.1168 44.7237C23.3488 45.2146 23.4683 45.751 23.4667 46.2939V60.8001C23.4667 61.083 23.3543 61.3543 23.1542 61.5543C22.9542 61.7543 22.6829 61.8667 22.4 61.8667H14.9333C14.6504 61.8667 14.3791 61.7543 14.1791 61.5543C13.979 61.3543 13.8667 61.083 13.8667 60.8001V56.5336C13.8635 55.7634 13.6643 55.0067 13.2877 54.3349C12.911 53.6631 12.3695 53.0982 11.7141 52.6937L4.46613 48.2458C3.75636 47.7768 3.17252 47.1408 2.7658 46.3936C2.35908 45.6463 2.14191 44.8108 2.13333 43.9601V23.6567ZM7.52533 36.8755L10.88 41.0674L7.6896 40.4487C7.6736 40.0295 7.6096 38.6632 7.52533 36.8755Z" fill="#4F52FF"></path><path d="M26.9983 40.3048L30.7381 42.3474C31.1249 42.5594 31.5588 42.6705 31.9999 42.6705C32.441 42.6705 32.875 42.5594 33.2618 42.3474L37.0015 40.3069C41.3134 37.9414 44.9078 34.4573 47.4064 30.2213C49.9051 25.9853 51.2156 21.1541 51.1999 16.2362V6.47752C51.1996 5.83719 50.9516 5.2218 50.5079 4.76015C50.0641 4.29851 49.459 4.02641 48.8191 4.00079C40.2954 3.76613 35.041 1.33848 33.1733 0.305973C32.8136 0.105328 32.4086 0 31.9967 0C31.5849 0 31.1799 0.105328 30.8202 0.305973C28.9557 1.33848 23.7013 3.76613 15.1775 4.00079C14.5383 4.02721 13.9339 4.29967 13.4908 4.76123C13.0478 5.22278 12.8002 5.83772 12.7999 6.47752V16.2362C12.7847 21.1537 14.0953 25.9845 16.594 30.2201C19.0926 34.4557 22.6868 37.9394 26.9983 40.3048ZM14.9333 6.47752C14.93 6.39169 14.96 6.3079 15.017 6.24369C15.0741 6.17948 15.1538 6.13982 15.2394 6.133C24.2335 5.8866 29.8527 3.28082 31.857 2.17258C31.9005 2.14783 31.9498 2.13496 31.9999 2.13525C32.0499 2.13511 32.099 2.14759 32.1429 2.17152C34.1429 3.28082 39.7663 5.8866 48.7605 6.133C48.8461 6.13982 48.9258 6.17948 48.9828 6.24369C49.0399 6.3079 49.0699 6.39169 49.0666 6.47752V16.2362C49.0818 20.7704 47.8744 25.2248 45.5716 29.1308C43.2687 33.0368 39.9556 36.2498 35.9807 38.4317L32.241 40.4722C32.1671 40.5126 32.0842 40.5338 31.9999 40.5338C31.9157 40.5338 31.8328 40.5126 31.7589 40.4722L28.0191 38.4317C24.0443 36.2498 20.7311 33.0368 18.4283 29.1308C16.1255 25.2248 14.9181 20.7704 14.9333 16.2362V6.47752Z" fill="#FE7062"></path><path d="M28.8002 23.4678V28.801C28.8002 29.3668 29.0249 29.9094 29.425 30.3094C29.8251 30.7095 30.3677 30.9342 30.9335 30.9342H33.0668C33.6326 30.9342 34.1752 30.7095 34.5753 30.3094C34.9754 29.9094 35.2002 29.3668 35.2002 28.801V23.4678H40.5335C41.0993 23.4678 41.6419 23.2431 42.042 22.843C42.4421 22.4429 42.6668 21.9003 42.6668 21.3345V19.2013C42.6668 18.6355 42.4421 18.0929 42.042 17.6928C41.6419 17.2928 41.0993 17.068 40.5335 17.068H35.2002V11.7348C35.2002 11.1691 34.9754 10.6264 34.5753 10.2264C34.1752 9.82632 33.6326 9.60156 33.0668 9.60156H30.9335C30.3677 9.60156 29.8251 9.82632 29.425 10.2264C29.0249 10.6264 28.8002 11.1691 28.8002 11.7348V17.068H23.4668C22.901 17.068 22.3584 17.2928 21.9583 17.6928C21.5583 18.0929 21.3335 18.6355 21.3335 19.2013V21.3345C21.3335 21.9003 21.5583 22.4429 21.9583 22.843C22.3584 23.2431 22.901 23.4678 23.4668 23.4678H28.8002ZM23.4668 19.2013H29.8668C30.1497 19.2013 30.421 19.0889 30.6211 18.8889C30.8211 18.6888 30.9335 18.4175 30.9335 18.1346V11.7348H33.0668V18.1346C33.0668 18.4175 33.1792 18.6888 33.3792 18.8889C33.5793 19.0889 33.8506 19.2013 34.1335 19.2013H40.5335V21.3345H34.1335C33.8506 21.3345 33.5793 21.4469 33.3792 21.6469C33.1792 21.847 33.0668 22.1183 33.0668 22.4012V28.801H30.9335V22.4012C30.9335 22.1183 30.8211 21.847 30.6211 21.6469C30.421 21.4469 30.1497 21.3345 29.8668 21.3345H23.4668V19.2013Z" fill="#4F52FF"></path></svg>