<svg xmlns="http://www.w3.org/2000/svg" width="64" height="60" viewBox="0 0 64 60" fill="none"><path d="M16.5539 17.6987C17.3209 22.0507 19.1869 26.1738 21.9499 29.6238L23.5109 28.3738C20.9569 25.1848 19.2329 21.3737 18.5229 17.3517L17.2289 10.0127L31.9999 2.13275L46.7709 10.0107L45.4659 17.4067C44.7599 21.4067 43.0489 25.1997 40.5189 28.3757L42.0829 29.6217C44.8199 26.1847 46.6709 22.0807 47.4349 17.7537L48.8669 9.64275C48.9419 9.21675 48.7349 8.78975 48.3529 8.58675L32.4709 0.11775C32.1759 -0.03925 31.8249 -0.03925 31.5299 0.11775L15.6479 8.58875C15.2659 8.79275 15.0589 9.21875 15.1339 9.64475L16.5539 17.6987Z" fill="#FE7062"></path><path d="M25.5288 8.7334L20.5278 11.4004C20.1458 11.6044 19.9388 12.0304 20.0138 12.4564L20.9968 18.0344C21.8118 22.6594 24.3208 26.7714 28.0598 29.6144L29.2708 28.0214C25.9328 25.4844 23.6938 21.8144 22.9648 17.6874L22.1078 12.8244L26.4688 10.4984L25.5288 8.7334Z" fill="#FE7062"></path><path d="M42.9918 18.0754L43.9828 12.4574C44.0578 12.0314 43.8508 11.6044 43.4688 11.4014L38.4668 8.7334L37.5258 10.4984L41.8868 12.8254L41.0228 17.7284C40.2868 21.8944 38.0178 25.5864 34.6348 28.1244L35.8338 29.7244C39.6258 26.8794 42.1678 22.7434 42.9918 18.0754Z" fill="#FE7062"></path><path d="M36.4718 7.66874L32.4698 5.53474C32.1748 5.37774 31.8238 5.37774 31.5288 5.53474L27.5298 7.66774L28.4708 9.43274L31.9988 7.55074L35.5298 9.43374L36.4718 7.66874Z" fill="#FE7062"></path><path d="M37.2472 13.3193L31.0592 20.3913L28.7992 17.3783L27.1992 18.5783L30.1992 22.5783C30.3802 22.8193 30.6602 22.9663 30.9612 22.9773H30.9992C31.2872 22.9773 31.5612 22.8533 31.7522 22.6363L38.7522 14.6363L37.2472 13.3193Z" fill="#4F52FF"></path><path d="M62.831 39.4195L58.056 35.2295C55.683 33.1465 52.638 31.9995 49.481 31.9995H10.327L8.39 29.1745C8.388 29.1725 8.387 29.1705 8.385 29.1685L7.017 27.1725C6.084 25.8115 4.543 24.9995 2.893 24.9995H1C0.447 24.9995 0 25.4475 0 25.9995V31.7395C0 35.3745 1.318 38.8825 3.711 41.6175L4.259 42.2435C6.349 44.6305 9.366 45.9995 12.538 45.9995H22V47.9995H20V49.9995H22V53.9995H20V55.9995H22V58.9995C22 59.5515 22.447 59.9995 23 59.9995H23.715C26.242 59.9995 28.668 58.9275 30.369 57.0595L40.442 45.9995H60.172C62.282 45.9995 64 44.2825 64 42.1705C64 41.1485 63.602 40.1875 62.831 39.4195ZM2.726 35.9925C2.388 35.0205 2.168 34.0185 2.068 32.9995C3.997 32.9855 5.838 32.3615 7.366 31.2205L8.659 33.1065C7.297 34.9805 5.039 36.1035 2.726 35.9925ZM2 26.9995H2.893C3.883 26.9995 4.808 27.4865 5.367 28.3025L6.235 29.5685C5.02 30.4965 3.545 30.9995 2 30.9995V26.9995ZM28.891 55.7125C27.632 57.0955 25.863 57.9175 24 57.9935V45.9995H37.736L28.891 55.7125ZM42 43.9995V38.9995C42 38.4485 42.448 37.9995 43 37.9995C43.552 37.9995 44 38.4485 44 38.9995V43.9995H42ZM60.172 43.9995H46V38.9995C46 37.3455 44.654 35.9995 43 35.9995C41.346 35.9995 40 37.3455 40 38.9995V43.9995H12.538C9.942 43.9995 7.474 42.8795 5.765 40.9255L5.217 40.2995C4.589 39.5825 4.048 38.8035 3.596 37.9795C6.368 37.7935 8.922 36.3155 10.475 33.9995H48.07C48.239 35.1885 48.708 36.3055 49.454 37.2715L51.038 36.0495C50.569 35.4425 50.254 34.7525 50.103 34.0165C50.125 34.0175 50.146 34.0185 50.168 34.0205C50.206 34.0225 50.244 34.0255 50.281 34.0285C50.322 34.0315 50.363 34.0345 50.404 34.0385C50.443 34.0415 50.482 34.0455 50.521 34.0485C50.562 34.0525 50.602 34.0565 50.642 34.0605C50.68 34.0645 50.719 34.0685 50.757 34.0735C50.799 34.0785 50.84 34.0835 50.882 34.0895C50.919 34.0945 50.957 34.0985 50.994 34.1045L51.114 34.1225C51.153 34.1285 51.192 34.1335 51.231 34.1405C51.274 34.1475 51.318 34.1555 51.361 34.1625C51.395 34.1685 51.429 34.1735 51.463 34.1805C51.539 34.1945 51.614 34.2095 51.69 34.2245C51.725 34.2315 51.76 34.2395 51.795 34.2475C51.838 34.2565 51.881 34.2655 51.923 34.2755C51.96 34.2835 51.996 34.2925 52.033 34.3015C52.073 34.3105 52.112 34.3205 52.152 34.3305C52.19 34.3405 52.229 34.3505 52.267 34.3605C52.306 34.3705 52.344 34.3805 52.383 34.3915C52.42 34.4015 52.457 34.4125 52.493 34.4225C52.533 34.4335 52.572 34.4455 52.612 34.4565C52.649 34.4675 52.685 34.4785 52.722 34.4895C52.76 34.5015 52.799 34.5135 52.837 34.5255L52.948 34.5615C52.987 34.5745 53.027 34.5875 53.066 34.6015C53.1 34.6135 53.135 34.6255 53.169 34.6375C53.21 34.6515 53.25 34.6665 53.29 34.6815C53.325 34.6945 53.359 34.7075 53.394 34.7205C53.433 34.7355 53.472 34.7505 53.51 34.7655C53.545 34.7795 53.58 34.7925 53.614 34.8065C53.652 34.8215 53.69 34.8375 53.727 34.8535C53.763 34.8685 53.799 34.8835 53.834 34.8985C53.873 34.9155 53.912 34.9325 53.951 34.9505C53.983 34.9645 54.016 34.9785 54.048 34.9935C54.096 35.0155 54.143 35.0375 54.19 35.0605C54.232 35.0805 54.274 35.1005 54.315 35.1205C54.367 35.1455 54.418 35.1715 54.47 35.1975C54.502 35.2135 54.533 35.2305 54.565 35.2475C54.604 35.2675 54.642 35.2875 54.681 35.3085C54.715 35.3265 54.748 35.3445 54.781 35.3635C54.817 35.3835 54.852 35.4025 54.888 35.4225C54.921 35.4415 54.955 35.4605 54.988 35.4805C55.024 35.5015 55.061 35.5225 55.097 35.5445C55.127 35.5625 55.158 35.5815 55.188 35.5995C55.226 35.6225 55.263 35.6455 55.3 35.6685C55.332 35.6885 55.364 35.7085 55.396 35.7295C55.43 35.7505 55.463 35.7725 55.497 35.7945C55.531 35.8165 55.564 35.8385 55.598 35.8615C55.632 35.8835 55.665 35.9065 55.698 35.9295C55.729 35.9505 55.76 35.9725 55.791 35.9935C55.826 36.0185 55.862 36.0435 55.897 36.0685C55.927 36.0905 55.957 36.1115 55.987 36.1335C56.021 36.1585 56.054 36.1835 56.088 36.2085C56.119 36.2315 56.149 36.2545 56.18 36.2775C56.215 36.3035 56.249 36.3305 56.283 36.3575C56.311 36.3795 56.34 36.4015 56.368 36.4245C56.407 36.4555 56.446 36.4875 56.485 36.5195C56.508 36.5385 56.531 36.5565 56.553 36.5755C56.614 36.6275 56.675 36.6795 56.736 36.7325L58.182 37.9995H55C54.119 37.9995 53.255 37.7685 52.499 37.3295L51.495 39.0595C52.556 39.6745 53.768 39.9995 55 39.9995H60.464L61.465 40.8775C61.81 41.2235 62 41.6825 62 42.1705C62 43.1795 61.18 43.9995 60.172 43.9995Z" fill="#4F52FF"></path><path d="M10 37.9995H14V39.9995H10V37.9995Z" fill="black"></path><path d="M16 37.9995H20V39.9995H16V37.9995Z" fill="black"></path><path d="M22 37.9995H26V39.9995H22V37.9995Z" fill="black"></path><path d="M28 37.9995H32V39.9995H28V37.9995Z" fill="black"></path><path d="M34 37.9995H38V39.9995H34V37.9995Z" fill="black"></path></svg>